<!-- created by svgstack.com | Attribution is required. --><svg width="401" height="167" viewBox="0 0 401 167" fill="none" xmlns="http://www.w3.org/2000/svg"><g clip-path="url(#clip0_103_209)"><path fill-rule="evenodd" clip-rule="evenodd" d="M400.92 86.2947C400.92 57.8502 387.142 35.4058 360.809 35.4058C334.364 35.4058 318.365 57.8502 318.365 86.0724C318.365 119.517 337.253 136.406 364.364 136.406C377.587 136.406 387.587 133.406 395.142 129.183V106.961C387.587 110.739 378.92 113.072 367.92 113.072C357.142 113.072 347.587 109.295 346.364 96.1835H400.698C400.698 94.7391 400.92 88.9613 400.92 86.2947ZM346.031 75.7391C346.031 63.1835 353.698 57.9613 360.698 57.9613C367.476 57.9613 374.698 63.1835 374.698 75.7391H346.031Z" fill="#635BFF"/><path fill-rule="evenodd" clip-rule="evenodd" d="M275.476 35.4058C264.587 35.4058 257.587 40.5169 253.698 44.0724L252.253 37.1835H227.809V166.739L255.587 160.85L255.698 129.406C259.698 132.295 265.587 136.406 275.364 136.406C295.253 136.406 313.364 120.406 313.364 85.1835C313.253 52.9613 294.92 35.4058 275.476 35.4058ZM268.809 111.961C262.253 111.961 258.364 109.628 255.698 106.739L255.587 65.5169C258.476 62.2947 262.476 60.0724 268.809 60.0724C278.92 60.0724 285.92 71.4058 285.92 85.9613C285.92 100.85 279.031 111.961 268.809 111.961Z" fill="#635BFF"/><path fill-rule="evenodd" clip-rule="evenodd" d="M189.587 28.85L217.476 22.85V0.294434L189.587 6.18332V28.85Z" fill="#635BFF"/><path d="M217.476 37.2944H189.587V134.517H217.476V37.2944Z" fill="#635BFF"/><path fill-rule="evenodd" clip-rule="evenodd" d="M159.698 45.5162L157.92 37.294H133.92V134.516H161.698V68.6274C168.254 60.0718 179.365 61.6274 182.809 62.8496V37.294C179.254 35.9607 166.253 33.5162 159.698 45.5162Z" fill="#635BFF"/><path fill-rule="evenodd" clip-rule="evenodd" d="M104.142 13.1836L77.0313 18.9614L76.9202 107.961C76.9202 124.406 89.2535 136.517 105.698 136.517C114.809 136.517 121.476 134.85 125.143 132.85V110.295C121.587 111.739 104.031 116.85 104.031 100.406V60.9614H125.143V37.2947H104.031L104.142 13.1836Z" fill="#635BFF"/><path fill-rule="evenodd" clip-rule="evenodd" d="M29.0313 65.5169C29.0313 61.1835 32.5868 59.5169 38.4757 59.5169C46.9202 59.5169 57.5868 62.0724 66.0313 66.628V40.5169C56.8091 36.8502 47.6979 35.4058 38.4757 35.4058C15.9202 35.4058 0.920166 47.1835 0.920166 66.8502C0.920166 97.5169 43.1424 92.628 43.1424 105.85C43.1424 110.961 38.6979 112.628 32.4757 112.628C23.2535 112.628 11.4757 108.85 2.14239 103.739V130.183C12.4757 134.628 22.9202 136.517 32.4757 136.517C55.5868 136.517 71.4757 125.072 71.4757 105.184C71.3646 72.0724 29.0313 77.9613 29.0313 65.5169Z" fill="#635BFF"/></g><defs><clipPath id="clip0_103_209"><rect width="400" height="166.667" fill="white" transform="translate(0.920166 0.294434)"/></clipPath></defs></svg> 